<svg xmlns="http://www.w3.org/2000/svg" width="24" height="23.67"><rect width="100%" height="100%" fill="none"/><g class="currentLayer"><path d="M2.53 2.5v18.71c0 1.3 1.06 2.34 2.38 2.34h14.26a2.36 2.36 0 002.38-2.34V2.51c0-1.3-1.06-2.35-2.38-2.35H4.91A2.36 2.36 0 002.53 2.5zm2.38 5.85C4.9 7.05 5.97 6 7.29 6h.59c-.98 0-1.78-.79-1.78-1.75S6.9 2.5 7.88 2.5s1.78.79 1.78 1.76S8.86 6 7.88 6h.6a2.36 2.36 0 012.37 2.34v1.17H4.91V8.35zm9.5 11.7h-9.5V17.7h9.5v2.34zm4.76-4.68H4.91v-2.34h14.26v2.34zm0-10.53h-5.94V2.5h5.94v2.34zm0 4.68h-5.94V7.18h5.94v2.34z"/></g></svg>